<svg width="36" height="36" viewBox="0 0 36 36" fill="none" xmlns="http://www.w3.org/2000/svg">
<path d="M29.25 0.0185547C31.1094 0.0185547 32.6992 0.67366 34.0195 1.98387C35.3398 3.29408 36 4.87176 36 6.71691V29.0447C36 30.8899 35.3398 32.4676 34.0195 33.7778C32.6992 35.088 31.1094 35.7431 29.25 35.7431H24.8438V21.9045H29.5078L30.2109 16.5086H24.8438V13.0664C24.8438 12.1981 25.0273 11.5469 25.3945 11.1127C25.7617 10.6785 26.4766 10.4615 27.5391 10.4615L30.3984 10.4382V5.62377C29.4141 5.48422 28.0234 5.41445 26.2266 5.41445C24.1016 5.41445 22.4023 6.03467 21.1289 7.2751C19.8555 8.51554 19.2188 10.2677 19.2188 12.5314V16.5086H14.5312V21.9045H19.2188V35.7431H6.75C4.89062 35.7431 3.30078 35.088 1.98047 33.7778C0.660156 32.4676 0 30.8899 0 29.0447V6.71691C0 4.87176 0.660156 3.29408 1.98047 1.98387C3.30078 0.67366 4.89062 0.0185547 6.75 0.0185547H29.25Z" fill="white"/>
</svg>
