<svg width="36" height="36" viewBox="0 0 36 36" fill="none" xmlns="http://www.w3.org/2000/svg">
<path d="M17.9952 11.9242C14.69 11.9242 11.9927 14.6009 11.9927 17.8808C11.9927 21.1608 14.69 23.8374 17.9952 23.8374C21.3003 23.8374 23.9976 21.1608 23.9976 17.8808C23.9976 14.6009 21.3003 11.9242 17.9952 11.9242ZM35.998 17.8808C35.998 15.4142 36.0205 12.9698 35.8809 10.5077C35.7413 7.64776 35.0839 5.1096 32.9765 3.01831C30.8646 0.922538 28.3114 0.274593 25.4295 0.136067C22.9439 -0.00245915 20.4808 0.0198838 17.9997 0.0198838C15.514 0.0198838 13.0509 -0.00245915 10.5698 0.136067C7.68789 0.274593 5.13021 0.927007 3.02282 3.01831C0.910937 5.11407 0.258008 7.64776 0.118416 10.5077C-0.0211755 12.9743 0.00133938 15.4186 0.00133938 17.8808C0.00133938 20.343 -0.0211755 22.7918 0.118416 25.254C0.258008 28.1139 0.91544 30.652 3.02282 32.7433C5.13471 34.8391 7.68789 35.4871 10.5698 35.6256C13.0554 35.7641 15.5185 35.7418 17.9997 35.7418C20.4853 35.7418 22.9484 35.7641 25.4295 35.6256C28.3114 35.4871 30.8691 34.8346 32.9765 32.7433C35.0884 30.6476 35.7413 28.1139 35.8809 25.254C36.025 22.7918 35.998 20.3475 35.998 17.8808ZM17.9952 27.0459C12.8843 27.0459 8.75959 22.9527 8.75959 17.8808C8.75959 12.809 12.8843 8.71575 17.9952 8.71575C23.106 8.71575 27.2307 12.809 27.2307 17.8808C27.2307 22.9527 23.106 27.0459 17.9952 27.0459ZM27.609 10.4808C26.4157 10.4808 25.4521 9.52457 25.4521 8.34039C25.4521 7.15622 26.4157 6.19994 27.609 6.19994C28.8023 6.19994 29.7659 7.15622 29.7659 8.34039C29.7663 8.62158 29.7107 8.90007 29.6024 9.15992C29.4942 9.41978 29.3353 9.65588 29.1349 9.85471C28.9346 10.0535 28.6967 10.2112 28.4348 10.3186C28.173 10.4261 27.8923 10.4812 27.609 10.4808Z" fill="white"/>
</svg>
