<svg width="36" height="36" viewBox="0 0 36 36" fill="none" xmlns="http://www.w3.org/2000/svg">
<path d="M30 11.229C29.125 11.6166 28.1797 11.8802 27.1641 12.0198C28.2266 11.3995 28.9531 10.4925 29.3438 9.29856C28.3281 9.88777 27.2812 10.2832 26.2031 10.4847C25.25 9.46137 24.0547 8.94969 22.6172 8.94969C21.2578 8.94969 20.0977 9.42648 19.1367 10.3801C18.1758 11.3337 17.6953 12.4849 17.6953 13.8339C17.6953 14.2836 17.7344 14.6557 17.8125 14.9503C15.7969 14.8418 13.9062 14.3378 12.1406 13.4385C10.375 12.5392 8.875 11.3375 7.64062 9.8335C7.1875 10.6088 6.96094 11.4306 6.96094 12.2989C6.96094 14.0665 7.67188 15.4232 9.09375 16.369C8.35938 16.3535 7.57812 16.152 6.75 15.7643V15.8108C6.75 16.9738 7.14062 18.0087 7.92188 18.9158C8.70312 19.8229 9.66406 20.385 10.8047 20.602C10.3516 20.7261 9.95312 20.7881 9.60938 20.7881C9.40625 20.7881 9.10156 20.7571 8.69531 20.6951C9.02344 21.6719 9.60547 22.4782 10.4414 23.1139C11.2773 23.7496 12.2266 24.0752 13.2891 24.0908C11.4766 25.4862 9.4375 26.184 7.17188 26.184C6.76562 26.184 6.375 26.1607 6 26.1142C8.3125 27.5717 10.8281 28.3005 13.5469 28.3005C15.2969 28.3005 16.9375 28.0253 18.4688 27.4748C20 26.9244 21.3125 26.1879 22.4062 25.2653C23.5 24.3427 24.4414 23.2806 25.2305 22.0789C26.0195 20.8773 26.6055 19.6213 26.9883 18.3111C27.3711 17.0009 27.5625 15.6946 27.5625 14.3921C27.5625 14.113 27.5547 13.9037 27.5391 13.7641C28.5234 13.0664 29.3438 12.2213 30 11.229ZM36 6.71691V29.0447C36 30.8899 35.3398 32.4676 34.0195 33.7778C32.6992 35.088 31.1094 35.7431 29.25 35.7431H6.75C4.89062 35.7431 3.30078 35.088 1.98047 33.7778C0.660156 32.4676 0 30.8899 0 29.0447V6.71691C0 4.87176 0.660156 3.29408 1.98047 1.98387C3.30078 0.67366 4.89062 0.0185547 6.75 0.0185547H29.25C31.1094 0.0185547 32.6992 0.67366 34.0195 1.98387C35.3398 3.29408 36 4.87176 36 6.71691Z" fill="white"/>
</svg>
