<svg width="36" height="36" viewBox="0 0 36 36" fill="none" xmlns="http://www.w3.org/2000/svg">
<path d="M23.5314 0.0185547H12.4866C2.3994 0.0185547 0 2.3996 0 12.3917V23.352C0 33.3603 2.3814 35.7431 12.4686 35.7431H23.5134C33.5988 35.7431 36 33.3799 36 23.3699V12.4096C36 2.3996 33.6186 0.0185547 23.5314 0.0185547ZM29.0628 25.508H26.4366C25.443 25.508 25.1442 24.7096 23.3622 22.9412C21.807 21.4533 21.15 21.2675 20.7558 21.2675C20.2122 21.2675 20.0628 21.4158 20.0628 22.1606V24.5042C20.0628 25.1383 19.8558 25.5098 18.1872 25.5098C16.5678 25.4018 14.9975 24.9136 13.6055 24.0853C12.2135 23.2571 11.0397 22.1125 10.1808 20.7459C8.1417 18.2273 6.7229 15.2714 6.0372 12.1131C6.0372 11.7219 6.1866 11.3682 6.9372 11.3682H9.5616C10.2366 11.3682 10.4796 11.6665 10.7442 12.3542C12.0186 16.0767 14.193 19.3134 15.075 19.3134C15.4134 19.3134 15.561 19.1651 15.561 18.3274V14.4941C15.4494 12.7454 14.5134 12.5972 14.5134 11.9648C14.5254 11.7981 14.6024 11.6425 14.7281 11.5311C14.8538 11.4197 15.0182 11.3613 15.1866 11.3682H19.3122C19.8756 11.3682 20.0628 11.6469 20.0628 12.3167V17.4896C20.0628 18.0487 20.3058 18.2345 20.475 18.2345C20.8134 18.2345 21.0744 18.0487 21.6936 17.4343C23.0235 15.8248 24.1101 14.0316 24.9192 12.1113C25.0019 11.8806 25.1584 11.6832 25.3647 11.549C25.5711 11.4148 25.8161 11.3513 26.0622 11.3682H28.6884C29.475 11.3682 29.6424 11.7594 29.475 12.3167C28.5201 14.4395 27.3385 16.4546 25.9506 18.3274C25.668 18.7561 25.5546 18.9794 25.9506 19.4813C26.2134 19.8725 27.1314 20.6352 27.7506 21.3604C28.6506 22.2517 29.3976 23.2824 29.9628 24.4113C30.1878 25.1365 29.8116 25.5098 29.0628 25.5098V25.508Z" fill="white"/>
</svg>
