<svg width="36" height="36" viewBox="0 0 36 36" fill="none" xmlns="http://www.w3.org/2000/svg">
<path d="M15.0107 13.5827L22.6607 17.8968L15.0107 22.2108V13.5827ZM36 3.84618V31.9155C36 34.0286 34.2723 35.7431 32.1429 35.7431H3.85714C1.72768 35.7431 0 34.0286 0 31.9155V3.84618C0 1.73301 1.72768 0.0185547 3.85714 0.0185547H32.1429C34.2723 0.0185547 36 1.73301 36 3.84618ZM32.625 17.9047C32.625 17.9047 32.625 13.1521 32.0143 10.8715C31.6768 9.61155 30.6884 8.62275 29.4268 8.28783C27.1527 7.67381 18 7.67381 18 7.67381C18 7.67381 8.84732 7.67381 6.57321 8.28783C5.31161 8.62275 4.32321 9.61155 3.98571 10.8715C3.375 13.1441 3.375 17.9047 3.375 17.9047C3.375 17.9047 3.375 22.6574 3.98571 24.938C4.32321 26.1979 5.31161 27.1469 6.57321 27.4818C8.84732 28.0878 18 28.0878 18 28.0878C18 28.0878 27.1527 28.0878 29.4268 27.4738C30.6884 27.1389 31.6768 26.19 32.0143 24.93C32.625 22.6574 32.625 17.9047 32.625 17.9047Z" fill="white"/>
</svg>
