<svg width="33" height="33" viewBox="0 0 33 33" fill="none" xmlns="http://www.w3.org/2000/svg">
<path d="M22.8462 13.9616C22.8462 11.5156 21.9769 9.42339 20.2383 7.6848C18.4997 5.94622 16.4075 5.07693 13.9615 5.07693C11.5156 5.07693 9.42338 5.94622 7.6848 7.6848C5.94621 9.42339 5.07692 11.5156 5.07692 13.9616C5.07692 16.4075 5.94621 18.4997 7.6848 20.2383C9.42338 21.9769 11.5156 22.8462 13.9615 22.8462C16.4075 22.8462 18.4997 21.9769 20.2383 20.2383C21.9769 18.4997 22.8462 16.4075 22.8462 13.9616ZM33 30.4616C33 31.1491 32.7488 31.744 32.2464 32.2464C31.744 32.7488 31.149 33 30.4615 33C29.7476 33 29.1526 32.7488 28.6767 32.2464L21.8744 25.464C19.5078 27.1034 16.8702 27.9231 13.9615 27.9231C12.0709 27.9231 10.2629 27.5562 8.53756 26.8224C6.8122 26.0887 5.32482 25.0971 4.07542 23.8477C2.82602 22.5983 1.83443 21.1109 1.10066 19.3855C0.366887 17.6602 0 15.8522 0 13.9616C0 12.0709 0.366887 10.2629 1.10066 8.53757C1.83443 6.81221 2.82602 5.32482 4.07542 4.07542C5.32482 2.82602 6.8122 1.83444 8.53756 1.10066C10.2629 0.366887 12.0709 0 13.9615 0C15.8522 0 17.6602 0.366887 19.3855 1.10066C21.1109 1.83444 22.5983 2.82602 23.8477 4.07542C25.0971 5.32482 26.0886 6.81221 26.8224 8.53757C27.5562 10.2629 27.9231 12.0709 27.9231 13.9616C27.9231 16.8702 27.1034 19.5078 25.4639 21.8744L32.2662 28.6767C32.7554 29.1659 33 29.7608 33 30.4616Z" fill="#474747"/>
</svg>
