<?xml version="1.0" encoding="utf-8"?>
<!-- Generator: Adobe Illustrator 26.1.0, SVG Export Plug-In . SVG Version: 6.00 Build 0)  -->
<svg version="1.1" id="Слой_1" xmlns="http://www.w3.org/2000/svg" xmlns:xlink="http://www.w3.org/1999/xlink" x="0px" y="0px"
	 viewBox="0 0 180 77" height="57" width="132" style="enable-background:new 0 0 180 77;" xml:space="preserve">
<style type="text/css">
	.st0{fill:#FFFFFF;}
	.st1{enable-background:new    ;}
</style>
<polygon class="st0" points="0.8,0.7 0.8,50.7 25.8,50.7 25.8,75.7 50.8,50.7 50.8,0.7 "/>
<g class="st1">
	<path class="st0" d="M62.3,20.5V7.6h4.9c0.9,0,1.5,0,2,0.1c0.6,0.1,1.2,0.3,1.6,0.6c0.4,0.3,0.8,0.7,1,1.2s0.4,1.1,0.4,1.8
		c0,1.1-0.3,2-1,2.8c-0.7,0.8-2,1.1-3.8,1.1H64v5.2H62.3z M64,13.7h3.3c1.1,0,1.9-0.2,2.3-0.6s0.7-1,0.7-1.7c0-0.5-0.1-1-0.4-1.4
		c-0.3-0.4-0.6-0.6-1.1-0.8c-0.3-0.1-0.8-0.1-1.6-0.1H64V13.7z"/>
	<path class="st0" d="M72.7,15.8c0-1.7,0.5-3,1.4-3.8c0.8-0.7,1.8-1,2.9-1c1.3,0,2.3,0.4,3.1,1.3s1.2,2,1.2,3.5
		c0,1.2-0.2,2.1-0.5,2.8c-0.4,0.7-0.9,1.2-1.6,1.6s-1.4,0.6-2.3,0.6c-1.3,0-2.4-0.4-3.2-1.3S72.7,17.4,72.7,15.8z M74.3,15.8
		c0,1.2,0.3,2.1,0.8,2.7c0.5,0.6,1.2,0.9,2,0.9c0.8,0,1.4-0.3,2-0.9s0.8-1.5,0.8-2.7c0-1.2-0.3-2-0.8-2.6c-0.5-0.6-1.2-0.9-2-0.9
		c-0.8,0-1.4,0.3-2,0.9S74.3,14.6,74.3,15.8z"/>
	<path class="st0" d="M89.4,17.1l1.6,0.2c-0.2,1.1-0.6,1.9-1.3,2.5c-0.7,0.6-1.6,0.9-2.6,0.9c-1.3,0-2.3-0.4-3.1-1.3
		c-0.8-0.8-1.2-2-1.2-3.6c0-1,0.2-1.9,0.5-2.6s0.8-1.3,1.5-1.7c0.7-0.4,1.4-0.6,2.2-0.6c1,0,1.8,0.3,2.5,0.8s1.1,1.2,1.2,2.2
		l-1.5,0.2c-0.1-0.6-0.4-1.1-0.8-1.4s-0.8-0.5-1.3-0.5c-0.8,0-1.4,0.3-1.9,0.9c-0.5,0.6-0.7,1.5-0.7,2.7c0,1.3,0.2,2.2,0.7,2.7
		s1.1,0.9,1.9,0.9c0.6,0,1.1-0.2,1.6-0.6S89.3,17.9,89.4,17.1z"/>
	<path class="st0" d="M91.4,11.1H99v1.3h-3v8h-1.6v-8h-3V11.1z"/>
	<path class="st0" d="M99.7,15.8c0-1.7,0.5-3,1.4-3.8c0.8-0.7,1.8-1,2.9-1c1.3,0,2.3,0.4,3.1,1.3s1.2,2,1.2,3.5
		c0,1.2-0.2,2.1-0.5,2.8c-0.4,0.7-0.9,1.2-1.6,1.6s-1.4,0.6-2.3,0.6c-1.3,0-2.4-0.4-3.2-1.3S99.7,17.4,99.7,15.8z M101.4,15.8
		c0,1.2,0.3,2.1,0.8,2.7c0.5,0.6,1.2,0.9,2,0.9c0.8,0,1.4-0.3,2-0.9s0.8-1.5,0.8-2.7c0-1.2-0.3-2-0.8-2.6c-0.5-0.6-1.2-0.9-2-0.9
		c-0.8,0-1.4,0.3-2,0.9S101.4,14.6,101.4,15.8z"/>
	<path class="st0" d="M110.3,11.1h3.6c0.9,0,1.6,0.1,2,0.2c0.4,0.1,0.8,0.4,1.1,0.8s0.5,0.9,0.5,1.4c0,0.4-0.1,0.8-0.3,1.2
		c-0.2,0.3-0.5,0.6-0.8,0.8c0.4,0.1,0.8,0.4,1.1,0.8c0.3,0.4,0.4,0.9,0.4,1.4c-0.1,0.9-0.4,1.5-0.9,2s-1.4,0.6-2.5,0.6h-4.2V11.1z
		 M111.9,15.1h1.7c0.7,0,1.1,0,1.4-0.1s0.5-0.2,0.7-0.4c0.2-0.2,0.3-0.5,0.3-0.8c0-0.5-0.2-0.8-0.5-1s-0.9-0.3-1.8-0.3h-1.7V15.1z
		 M111.9,19.2h2.1c0.9,0,1.5-0.1,1.8-0.3c0.3-0.2,0.5-0.6,0.5-1.1c0-0.3-0.1-0.6-0.3-0.8c-0.2-0.3-0.4-0.4-0.8-0.5
		c-0.3-0.1-0.8-0.1-1.5-0.1h-1.9V19.2z"/>
	<path class="st0" d="M125.8,17.1l1.6,0.2c-0.2,1.1-0.6,1.9-1.3,2.5c-0.7,0.6-1.6,0.9-2.6,0.9c-1.3,0-2.3-0.4-3.1-1.3
		c-0.8-0.8-1.2-2-1.2-3.6c0-1,0.2-1.9,0.5-2.6s0.8-1.3,1.5-1.7c0.7-0.4,1.4-0.6,2.2-0.6c1,0,1.8,0.3,2.5,0.8s1.1,1.2,1.2,2.2
		l-1.5,0.2c-0.1-0.6-0.4-1.1-0.8-1.4s-0.8-0.5-1.3-0.5c-0.8,0-1.4,0.3-1.9,0.9c-0.5,0.6-0.7,1.5-0.7,2.7c0,1.3,0.2,2.2,0.7,2.7
		s1.1,0.9,1.9,0.9c0.6,0,1.1-0.2,1.6-0.6S125.7,17.9,125.8,17.1z"/>
	<path class="st0" d="M128.7,11.1h1.6v4c0.5,0,0.9-0.1,1.1-0.3s0.5-0.8,0.9-1.7c0.3-0.7,0.6-1.2,0.8-1.5s0.4-0.4,0.7-0.5
		s0.7-0.1,1.2-0.1h0.3v1.3l-0.4,0c-0.4,0-0.7,0.1-0.8,0.2c-0.1,0.1-0.3,0.5-0.6,1.2c-0.2,0.6-0.5,1-0.7,1.3s-0.5,0.4-0.9,0.6
		c0.7,0.2,1.3,0.8,2,1.9l1.7,2.9h-1.7l-1.7-2.9c-0.3-0.6-0.6-1-0.9-1.1c-0.3-0.2-0.6-0.3-0.9-0.3v4.3h-1.6V11.1z"/>
	<path class="st0" d="M143.1,19.3c-0.6,0.5-1.1,0.8-1.7,1.1s-1.1,0.3-1.7,0.3c-1,0-1.8-0.2-2.4-0.8c-0.6-0.5-0.8-1.1-0.8-1.9
		c0-0.5,0.1-0.9,0.3-1.3c0.2-0.4,0.5-0.7,0.8-0.9s0.7-0.4,1.1-0.5c0.3-0.1,0.8-0.2,1.4-0.2c1.3-0.2,2.2-0.3,2.8-0.5
		c0-0.2,0-0.4,0-0.4c0-0.6-0.1-1.1-0.4-1.4c-0.4-0.4-1-0.5-1.8-0.5c-0.7,0-1.3,0.1-1.6,0.4s-0.6,0.7-0.8,1.4l-1.5-0.2
		c0.1-0.7,0.4-1.2,0.7-1.6c0.3-0.4,0.8-0.7,1.4-0.9c0.6-0.2,1.3-0.3,2.1-0.3c0.8,0,1.4,0.1,1.9,0.3s0.9,0.4,1.1,0.7
		c0.2,0.3,0.4,0.6,0.5,1.1c0.1,0.3,0.1,0.8,0.1,1.5v2.1c0,1.5,0,2.4,0.1,2.8c0.1,0.4,0.2,0.8,0.4,1.1h-1.7
		C143.2,20.2,143.1,19.8,143.1,19.3z M142.9,15.8c-0.6,0.2-1.4,0.4-2.6,0.6c-0.7,0.1-1.1,0.2-1.4,0.3s-0.5,0.3-0.6,0.5
		s-0.2,0.5-0.2,0.8c0,0.4,0.2,0.8,0.5,1.1s0.8,0.4,1.4,0.4c0.6,0,1.2-0.1,1.6-0.4s0.8-0.6,1-1.1c0.2-0.4,0.3-0.9,0.3-1.6V15.8z"/>
	<path class="st0" d="M154.3,11.1v9.3h-1.6v-3.6h-0.9c-0.6,0-1,0.1-1.2,0.2c-0.3,0.1-0.7,0.6-1.2,1.4l-1.4,2h-2l1.7-2.5
		c0.5-0.8,1-1.2,1.6-1.3c-0.9-0.1-1.6-0.4-2-1s-0.7-1.1-0.7-1.8c0-0.8,0.3-1.5,0.9-2s1.4-0.8,2.5-0.8H154.3z M152.7,12.5h-2.2
		c-0.9,0-1.6,0.1-1.8,0.4s-0.4,0.6-0.4,1c0,0.6,0.2,1,0.6,1.2s1.1,0.4,2.1,0.4h1.7V12.5z"/>
</g>
<g class="st1">
	<path class="st0" d="M62.3,29.2h8.3v1.5H64v11.4h-1.7V29.2z"/>
	<path class="st0" d="M70,37.4c0-1.7,0.5-3,1.4-3.8c0.8-0.7,1.8-1,2.9-1c1.3,0,2.3,0.4,3.1,1.3s1.2,2,1.2,3.5c0,1.2-0.2,2.1-0.5,2.8
		c-0.4,0.7-0.9,1.2-1.6,1.6s-1.4,0.6-2.3,0.6c-1.3,0-2.4-0.4-3.2-1.3S70,39,70,37.4z M71.6,37.4c0,1.2,0.3,2.1,0.8,2.7
		c0.5,0.6,1.2,0.9,2,0.9c0.8,0,1.4-0.3,2-0.9s0.8-1.5,0.8-2.7c0-1.2-0.3-2-0.8-2.6c-0.5-0.6-1.2-0.9-2-0.9c-0.8,0-1.4,0.3-2,0.9
		S71.6,36.2,71.6,37.4z"/>
	<path class="st0" d="M80.6,45.7V32.7H82V34c0.3-0.5,0.7-0.8,1.2-1.1c0.4-0.2,0.9-0.4,1.6-0.4c0.8,0,1.5,0.2,2.1,0.6s1.1,1,1.4,1.7
		c0.3,0.7,0.5,1.6,0.5,2.5c0,1-0.2,1.8-0.5,2.6c-0.3,0.8-0.8,1.4-1.5,1.8c-0.7,0.4-1.3,0.6-2.1,0.6c-0.5,0-1-0.1-1.4-0.3
		s-0.8-0.5-1-0.8v4.5H80.6z M82,37.5c0,1.2,0.2,2.1,0.7,2.7s1.1,0.9,1.8,0.9c0.7,0,1.3-0.3,1.8-0.9c0.5-0.6,0.8-1.5,0.8-2.8
		c0-1.2-0.2-2.1-0.7-2.7s-1.1-0.9-1.8-0.9c-0.7,0-1.3,0.3-1.8,0.9C82.3,35.4,82,36.3,82,37.5z"/>
	<path class="st0" d="M90,37.4c0-1.7,0.5-3,1.4-3.8c0.8-0.7,1.8-1,2.9-1c1.3,0,2.3,0.4,3.1,1.3s1.2,2,1.2,3.5c0,1.2-0.2,2.1-0.5,2.8
		c-0.4,0.7-0.9,1.2-1.6,1.6s-1.4,0.6-2.3,0.6c-1.3,0-2.4-0.4-3.2-1.3S90,39,90,37.4z M91.7,37.4c0,1.2,0.3,2.1,0.8,2.7
		c0.5,0.6,1.2,0.9,2,0.9c0.8,0,1.4-0.3,2-0.9s0.8-1.5,0.8-2.7c0-1.2-0.3-2-0.8-2.6c-0.5-0.6-1.2-0.9-2-0.9c-0.8,0-1.4,0.3-2,0.9
		S91.7,36.2,91.7,37.4z"/>
	<path class="st0" d="M101.5,32.7h6.5v8h1v3.9h-1.3v-2.6h-7.3v2.6H99v-3.9h0.8C101,39.3,101.5,36.6,101.5,32.7z M102.8,34.1
		c-0.1,3-0.6,5.3-1.4,6.7h5v-6.7H102.8z"/>
	<path class="st0" d="M116.8,38.7l1.6,0.2c-0.2,1.1-0.6,1.9-1.3,2.5c-0.7,0.6-1.6,0.9-2.6,0.9c-1.3,0-2.3-0.4-3.1-1.3
		c-0.8-0.8-1.2-2-1.2-3.6c0-1,0.2-1.9,0.5-2.6s0.8-1.3,1.5-1.7c0.7-0.4,1.4-0.6,2.2-0.6c1,0,1.8,0.3,2.5,0.8s1.1,1.2,1.2,2.2
		l-1.5,0.2c-0.1-0.6-0.4-1.1-0.8-1.4s-0.8-0.5-1.3-0.5c-0.8,0-1.4,0.3-1.9,0.9c-0.5,0.6-0.7,1.5-0.7,2.7c0,1.3,0.2,2.2,0.7,2.7
		s1.1,0.9,1.9,0.9c0.6,0,1.1-0.2,1.6-0.6S116.7,39.5,116.8,38.7z"/>
	<path class="st0" d="M119.7,32.7h1.6v4c0.5,0,0.9-0.1,1.1-0.3s0.5-0.8,0.9-1.7c0.3-0.7,0.6-1.2,0.8-1.5s0.4-0.4,0.7-0.5
		s0.7-0.1,1.2-0.1h0.3v1.3l-0.4,0c-0.4,0-0.7,0.1-0.8,0.2c-0.1,0.1-0.3,0.5-0.6,1.2c-0.2,0.6-0.5,1-0.7,1.3s-0.5,0.4-0.9,0.6
		c0.7,0.2,1.3,0.8,2,1.9l1.7,2.9h-1.7l-1.7-2.9c-0.3-0.6-0.6-1-0.9-1.1c-0.3-0.2-0.6-0.3-0.9-0.3v4.3h-1.6V32.7z"/>
	<path class="st0" d="M134.1,40.9c-0.6,0.5-1.1,0.8-1.7,1.1s-1.1,0.3-1.7,0.3c-1,0-1.8-0.2-2.4-0.8c-0.6-0.5-0.8-1.1-0.8-1.9
		c0-0.5,0.1-0.9,0.3-1.3c0.2-0.4,0.5-0.7,0.8-0.9s0.7-0.4,1.1-0.5c0.3-0.1,0.8-0.2,1.4-0.2c1.3-0.2,2.2-0.3,2.8-0.5
		c0-0.2,0-0.4,0-0.4c0-0.6-0.1-1.1-0.4-1.4c-0.4-0.4-1-0.5-1.8-0.5c-0.7,0-1.3,0.1-1.6,0.4s-0.6,0.7-0.8,1.4l-1.5-0.2
		c0.1-0.7,0.4-1.2,0.7-1.6c0.3-0.4,0.8-0.7,1.4-0.9c0.6-0.2,1.3-0.3,2.1-0.3c0.8,0,1.4,0.1,1.9,0.3s0.9,0.4,1.1,0.7
		c0.2,0.3,0.4,0.6,0.5,1.1c0.1,0.3,0.1,0.8,0.1,1.5v2.1c0,1.5,0,2.4,0.1,2.8c0.1,0.4,0.2,0.8,0.4,1.1h-1.7
		C134.2,41.8,134.1,41.4,134.1,40.9z M134,37.4c-0.6,0.2-1.4,0.4-2.6,0.6c-0.7,0.1-1.1,0.2-1.4,0.3s-0.5,0.3-0.6,0.5
		s-0.2,0.5-0.2,0.8c0,0.4,0.2,0.8,0.5,1.1s0.8,0.4,1.4,0.4c0.6,0,1.2-0.1,1.6-0.4s0.8-0.6,1-1.1c0.2-0.4,0.3-0.9,0.3-1.6V37.4z"/>
	<path class="st0" d="M145.4,32.7v9.3h-1.6v-3.6h-0.9c-0.6,0-1,0.1-1.2,0.2c-0.3,0.1-0.7,0.6-1.2,1.4l-1.4,2h-2l1.7-2.5
		c0.5-0.8,1-1.2,1.6-1.3c-0.9-0.1-1.6-0.4-2-1s-0.7-1.1-0.7-1.8c0-0.8,0.3-1.5,0.9-2s1.4-0.8,2.5-0.8H145.4z M143.8,34.1h-2.2
		c-0.9,0-1.6,0.1-1.8,0.4s-0.4,0.6-0.4,1c0,0.6,0.2,1,0.6,1.2s1.1,0.4,2.1,0.4h1.7V34.1z"/>
</g>
<g class="st1">
	<path class="st0" d="M62.3,50.8h8.4v1.5H64v4h3.1c1.1,0,2,0.1,2.7,0.3s1.2,0.6,1.6,1.2s0.6,1.3,0.6,2.1c0,0.7-0.1,1.3-0.4,1.8
		s-0.7,1-1.3,1.4s-1.6,0.5-2.9,0.5h-5V50.8z M64,62.2h3.4c0.9,0,1.6-0.2,2.1-0.6s0.7-0.9,0.7-1.7c0-0.5-0.1-1-0.4-1.3
		s-0.6-0.6-1.1-0.7s-1.3-0.2-2.4-0.2H64V62.2z"/>
	<path class="st0" d="M73.9,54.3h1.6v7.1l4.4-7.1h1.7v9.3H80v-7.1l-4.4,7.1h-1.7V54.3z"/>
	<path class="st0" d="M90.8,50.5l1.4,0c-0.1,0.6-0.2,1.1-0.4,1.3s-0.5,0.4-0.8,0.5s-1,0.1-2,0.1c-1.3,0-2.2,0.1-2.7,0.4
		s-0.8,0.7-1,1.2c-0.2,0.6-0.3,1.3-0.3,2.1c0.4-0.6,0.9-1,1.4-1.3c0.5-0.3,1.1-0.4,1.8-0.4c1.2,0,2.2,0.4,3,1.3
		c0.8,0.8,1.2,2,1.2,3.4c0,1.1-0.2,2-0.6,2.7s-0.9,1.2-1.4,1.6S89,63.9,88,63.9c-1.1,0-2-0.3-2.6-0.8S84.4,62,84,61.2
		s-0.5-2.2-0.5-4.1c0-2.5,0.4-4.1,1.3-5s2.1-1.3,3.9-1.3c1.1,0,1.7,0,1.8-0.1S90.7,50.6,90.8,50.5z M90.7,59c0-1-0.2-1.8-0.7-2.4
		s-1.1-0.9-1.9-0.9c-0.9,0-1.5,0.3-2,1s-0.7,1.5-0.7,2.6c0,1.1,0.3,1.9,0.8,2.5s1.2,0.9,1.9,0.9c0.8,0,1.4-0.3,1.9-1
		S90.7,60.1,90.7,59z"/>
	<path class="st0" d="M94.2,54.3h7.3v9.3H100v-8h-4.2v4.6c0,1.1,0,1.8-0.1,2.1s-0.3,0.6-0.6,0.9s-0.8,0.4-1.4,0.4
		c-0.4,0-0.8,0-1.3-0.1v-1.3h0.7c0.3,0,0.6,0,0.7-0.1s0.2-0.2,0.3-0.3s0.1-0.6,0.1-1.4V54.3z"/>
	<path class="st0" d="M103.9,54.3h1.6v7.1l4.4-7.1h1.7v9.3H110v-7.1l-4.4,7.1h-1.7V54.3z"/>
	<path class="st0" d="M113.4,59c0-1.7,0.5-3,1.4-3.8c0.8-0.7,1.8-1,2.9-1c1.3,0,2.3,0.4,3.1,1.3s1.2,2,1.2,3.5
		c0,1.2-0.2,2.1-0.5,2.8c-0.4,0.7-0.9,1.2-1.6,1.6s-1.4,0.6-2.3,0.6c-1.3,0-2.4-0.4-3.2-1.3S113.4,60.6,113.4,59z M115,59
		c0,1.2,0.3,2.1,0.8,2.7c0.5,0.6,1.2,0.9,2,0.9c0.8,0,1.4-0.3,2-0.9s0.8-1.5,0.8-2.7c0-1.2-0.3-2-0.8-2.6c-0.5-0.6-1.2-0.9-2-0.9
		c-0.8,0-1.4,0.3-2,0.9S115,57.8,115,59z"/>
	<path class="st0" d="M122.7,54.3h7.6v1.3h-3v8h-1.6v-8h-3V54.3z"/>
	<path class="st0" d="M138,60.7l1.6,0.2c-0.3,1-0.7,1.7-1.4,2.2s-1.6,0.8-2.7,0.8c-1.4,0-2.4-0.4-3.2-1.3c-0.8-0.8-1.2-2-1.2-3.5
		c0-1.6,0.4-2.8,1.2-3.7s1.9-1.3,3.1-1.3c1.2,0,2.3,0.4,3.1,1.3s1.2,2,1.2,3.6c0,0.1,0,0.2,0,0.4h-7c0.1,1,0.3,1.8,0.9,2.4
		s1.2,0.8,2,0.8c0.6,0,1.1-0.2,1.5-0.5S137.8,61.3,138,60.7z M132.8,58.1h5.2c-0.1-0.8-0.3-1.4-0.6-1.8c-0.5-0.6-1.2-0.9-2-0.9
		c-0.7,0-1.3,0.2-1.8,0.7S132.9,57.3,132.8,58.1z"/>
	<path class="st0" d="M141.6,54.3h1.6v4c0.5,0,0.9-0.1,1.1-0.3s0.5-0.8,0.9-1.7c0.3-0.7,0.6-1.2,0.8-1.5s0.4-0.4,0.7-0.5
		s0.7-0.1,1.2-0.1h0.3v1.3l-0.4,0c-0.4,0-0.7,0.1-0.8,0.2c-0.1,0.1-0.3,0.5-0.6,1.2c-0.2,0.6-0.5,1-0.7,1.3s-0.5,0.4-0.9,0.6
		c0.7,0.2,1.3,0.8,2,1.9l1.7,2.9h-1.7l-1.7-2.9c-0.3-0.6-0.6-1-0.9-1.1c-0.3-0.2-0.6-0.3-0.9-0.3v4.3h-1.6V54.3z"/>
	<path class="st0" d="M156,62.5c-0.6,0.5-1.1,0.8-1.7,1.1s-1.1,0.3-1.7,0.3c-1,0-1.8-0.2-2.4-0.8c-0.6-0.5-0.8-1.1-0.8-1.9
		c0-0.5,0.1-0.9,0.3-1.3c0.2-0.4,0.5-0.7,0.8-0.9s0.7-0.4,1.1-0.5c0.3-0.1,0.8-0.2,1.4-0.2c1.3-0.2,2.2-0.3,2.8-0.5
		c0-0.2,0-0.4,0-0.4c0-0.6-0.1-1.1-0.4-1.4c-0.4-0.4-1-0.5-1.8-0.5c-0.7,0-1.3,0.1-1.6,0.4s-0.6,0.7-0.8,1.4l-1.5-0.2
		c0.1-0.7,0.4-1.2,0.7-1.6c0.3-0.4,0.8-0.7,1.4-0.9c0.6-0.2,1.3-0.3,2.1-0.3c0.8,0,1.4,0.1,1.9,0.3s0.9,0.4,1.1,0.7
		c0.2,0.3,0.4,0.6,0.5,1.1c0.1,0.3,0.1,0.8,0.1,1.5v2.1c0,1.5,0,2.4,0.1,2.8c0.1,0.4,0.2,0.8,0.4,1.1h-1.7
		C156.2,63.4,156.1,63,156,62.5z M155.9,59c-0.6,0.2-1.4,0.4-2.6,0.6c-0.7,0.1-1.1,0.2-1.4,0.3s-0.5,0.3-0.6,0.5s-0.2,0.5-0.2,0.8
		c0,0.4,0.2,0.8,0.5,1.1s0.8,0.4,1.4,0.4c0.6,0,1.2-0.1,1.6-0.4s0.8-0.6,1-1.1c0.2-0.4,0.3-0.9,0.3-1.6V59z"/>
</g>
</svg>
