<?xml version="1.0" encoding="utf-8"?>
<!-- Generator: Adobe Illustrator 26.1.0, SVG Export Plug-In . SVG Version: 6.00 Build 0)  -->
<svg version="1.1" id="Слой_1" xmlns="http://www.w3.org/2000/svg" xmlns:xlink="http://www.w3.org/1999/xlink" x="0px" y="0px"
	 viewBox="0 0 180 77" width="152" height="67" style="enable-background:new 0 0 180 77;" xml:space="preserve">
<style type="text/css">
	.st0{fill:#CB463E;}
	.st1{enable-background:new    ;}
	.st2{font-family:'ArialMT';}
	.st3{font-size:18px;}
</style>
<polygon class="st0" points="1.1,0.7 1.1,50.7 26.1,50.7 26.1,75.7 51.1,50.7 51.1,0.7 "/>
<g class="st1">
	<path d="M62.6,20.5V7.6h4.9c0.9,0,1.5,0,2,0.1C70,7.8,70.5,8,71,8.3c0.4,0.3,0.8,0.7,1,1.2s0.4,1.1,0.4,1.8c0,1.1-0.3,2-1,2.8
		c-0.7,0.8-2,1.1-3.8,1.1h-3.3v5.2H62.6z M64.3,13.7h3.3c1.1,0,1.9-0.2,2.3-0.6s0.7-1,0.7-1.7c0-0.5-0.1-1-0.4-1.4
		c-0.3-0.4-0.6-0.6-1.1-0.8c-0.3-0.1-0.8-0.1-1.6-0.1h-3.3V13.7z"/>
	<path d="M73,15.8c0-1.7,0.5-3,1.4-3.8c0.8-0.7,1.8-1,2.9-1c1.3,0,2.3,0.4,3.1,1.3s1.2,2,1.2,3.5c0,1.2-0.2,2.1-0.5,2.8
		c-0.4,0.7-0.9,1.2-1.6,1.6s-1.4,0.6-2.3,0.6c-1.3,0-2.4-0.4-3.2-1.3S73,17.4,73,15.8z M74.6,15.8c0,1.2,0.3,2.1,0.8,2.7
		c0.5,0.6,1.2,0.9,2,0.9c0.8,0,1.4-0.3,2-0.9s0.8-1.5,0.8-2.7c0-1.2-0.3-2-0.8-2.6c-0.5-0.6-1.2-0.9-2-0.9c-0.8,0-1.4,0.3-2,0.9
		S74.6,14.6,74.6,15.8z"/>
	<path d="M89.7,17.1l1.6,0.2c-0.2,1.1-0.6,1.9-1.3,2.5c-0.7,0.6-1.6,0.9-2.6,0.9c-1.3,0-2.3-0.4-3.1-1.3c-0.8-0.8-1.2-2-1.2-3.6
		c0-1,0.2-1.9,0.5-2.6s0.8-1.3,1.5-1.7c0.7-0.4,1.4-0.6,2.2-0.6c1,0,1.8,0.3,2.5,0.8s1.1,1.2,1.2,2.2l-1.5,0.2
		c-0.1-0.6-0.4-1.1-0.8-1.4s-0.8-0.5-1.3-0.5c-0.8,0-1.4,0.3-1.9,0.9c-0.5,0.6-0.7,1.5-0.7,2.7c0,1.3,0.2,2.2,0.7,2.7
		s1.1,0.9,1.9,0.9c0.6,0,1.1-0.2,1.6-0.6S89.6,17.9,89.7,17.1z"/>
	<path d="M91.7,11.1h7.6v1.3h-3v8h-1.6v-8h-3V11.1z"/>
	<path d="M100,15.8c0-1.7,0.5-3,1.4-3.8c0.8-0.7,1.8-1,2.9-1c1.3,0,2.3,0.4,3.1,1.3s1.2,2,1.2,3.5c0,1.2-0.2,2.1-0.5,2.8
		c-0.4,0.7-0.9,1.2-1.6,1.6s-1.4,0.6-2.3,0.6c-1.3,0-2.4-0.4-3.2-1.3S100,17.4,100,15.8z M101.7,15.8c0,1.2,0.3,2.1,0.8,2.7
		c0.5,0.6,1.2,0.9,2,0.9c0.8,0,1.4-0.3,2-0.9s0.8-1.5,0.8-2.7c0-1.2-0.3-2-0.8-2.6c-0.5-0.6-1.2-0.9-2-0.9c-0.8,0-1.4,0.3-2,0.9
		S101.7,14.6,101.7,15.8z"/>
	<path d="M110.6,11.1h3.6c0.9,0,1.6,0.1,2,0.2c0.4,0.1,0.8,0.4,1.1,0.8s0.5,0.9,0.5,1.4c0,0.4-0.1,0.8-0.3,1.2
		c-0.2,0.3-0.5,0.6-0.8,0.8c0.4,0.1,0.8,0.4,1.1,0.8c0.3,0.4,0.4,0.9,0.4,1.4c-0.1,0.9-0.4,1.5-0.9,2s-1.4,0.6-2.5,0.6h-4.2V11.1z
		 M112.2,15.1h1.7c0.7,0,1.1,0,1.4-0.1s0.5-0.2,0.7-0.4c0.2-0.2,0.3-0.5,0.3-0.8c0-0.5-0.2-0.8-0.5-1s-0.9-0.3-1.8-0.3h-1.7V15.1z
		 M112.2,19.2h2.1c0.9,0,1.5-0.1,1.8-0.3c0.3-0.2,0.5-0.6,0.5-1.1c0-0.3-0.1-0.6-0.3-0.8c-0.2-0.3-0.4-0.4-0.8-0.5
		c-0.3-0.1-0.8-0.1-1.5-0.1h-1.9V19.2z"/>
	<path d="M126.1,17.1l1.6,0.2c-0.2,1.1-0.6,1.9-1.3,2.5c-0.7,0.6-1.6,0.9-2.6,0.9c-1.3,0-2.3-0.4-3.1-1.3c-0.8-0.8-1.2-2-1.2-3.6
		c0-1,0.2-1.9,0.5-2.6s0.8-1.3,1.5-1.7c0.7-0.4,1.4-0.6,2.2-0.6c1,0,1.8,0.3,2.5,0.8s1.1,1.2,1.2,2.2l-1.5,0.2
		c-0.1-0.6-0.4-1.1-0.8-1.4s-0.8-0.5-1.3-0.5c-0.8,0-1.4,0.3-1.9,0.9c-0.5,0.6-0.7,1.5-0.7,2.7c0,1.3,0.2,2.2,0.7,2.7
		s1.1,0.9,1.9,0.9c0.6,0,1.1-0.2,1.6-0.6S126,17.9,126.1,17.1z"/>
	<path d="M129,11.1h1.6v4c0.5,0,0.9-0.1,1.1-0.3s0.5-0.8,0.9-1.7c0.3-0.7,0.6-1.2,0.8-1.5s0.4-0.4,0.7-0.5s0.7-0.1,1.2-0.1h0.3v1.3
		l-0.4,0c-0.4,0-0.7,0.1-0.8,0.2c-0.1,0.1-0.3,0.5-0.6,1.2c-0.2,0.6-0.5,1-0.7,1.3s-0.5,0.4-0.9,0.6c0.7,0.2,1.3,0.8,2,1.9l1.7,2.9
		h-1.7l-1.7-2.9c-0.3-0.6-0.6-1-0.9-1.1c-0.3-0.2-0.6-0.3-0.9-0.3v4.3H129V11.1z"/>
	<path d="M143.4,19.3c-0.6,0.5-1.1,0.8-1.7,1.1s-1.1,0.3-1.7,0.3c-1,0-1.8-0.2-2.4-0.8c-0.6-0.5-0.8-1.1-0.8-1.9
		c0-0.5,0.1-0.9,0.3-1.3c0.2-0.4,0.5-0.7,0.8-0.9s0.7-0.4,1.1-0.5c0.3-0.1,0.8-0.2,1.4-0.2c1.3-0.2,2.2-0.3,2.8-0.5
		c0-0.2,0-0.4,0-0.4c0-0.6-0.1-1.1-0.4-1.4c-0.4-0.4-1-0.5-1.8-0.5c-0.7,0-1.3,0.1-1.6,0.4s-0.6,0.7-0.8,1.4l-1.5-0.2
		c0.1-0.7,0.4-1.2,0.7-1.6c0.3-0.4,0.8-0.7,1.4-0.9c0.6-0.2,1.3-0.3,2.1-0.3c0.8,0,1.4,0.1,1.9,0.3s0.9,0.4,1.1,0.7
		c0.2,0.3,0.4,0.6,0.5,1.1c0.1,0.3,0.1,0.8,0.1,1.5v2.1c0,1.5,0,2.4,0.1,2.8c0.1,0.4,0.2,0.8,0.4,1.1h-1.7
		C143.5,20.2,143.4,19.8,143.4,19.3z M143.2,15.8c-0.6,0.2-1.4,0.4-2.6,0.6c-0.7,0.1-1.1,0.2-1.4,0.3s-0.5,0.3-0.6,0.5
		s-0.2,0.5-0.2,0.8c0,0.4,0.2,0.8,0.5,1.1s0.8,0.4,1.4,0.4c0.6,0,1.2-0.1,1.6-0.4s0.8-0.6,1-1.1c0.2-0.4,0.3-0.9,0.3-1.6V15.8z"/>
	<path d="M154.6,11.1v9.3h-1.6v-3.6h-0.9c-0.6,0-1,0.1-1.2,0.2c-0.3,0.1-0.7,0.6-1.2,1.4l-1.4,2h-2l1.7-2.5c0.5-0.8,1-1.2,1.6-1.3
		c-0.9-0.1-1.6-0.4-2-1s-0.7-1.1-0.7-1.8c0-0.8,0.3-1.5,0.9-2s1.4-0.8,2.5-0.8H154.6z M153.1,12.5h-2.2c-0.9,0-1.6,0.1-1.8,0.4
		s-0.4,0.6-0.4,1c0,0.6,0.2,1,0.6,1.2s1.1,0.4,2.1,0.4h1.7V12.5z"/>
</g>
<text transform="matrix(1 0 0 1 171.6733 20.4819)" class="st2 st3"> </text>
<g class="st1">
	<path d="M62.6,29.2h8.3v1.5h-6.6v11.4h-1.7V29.2z"/>
	<path d="M70.3,37.4c0-1.7,0.5-3,1.4-3.8c0.8-0.7,1.8-1,2.9-1c1.3,0,2.3,0.4,3.1,1.3s1.2,2,1.2,3.5c0,1.2-0.2,2.1-0.5,2.8
		c-0.4,0.7-0.9,1.2-1.6,1.6s-1.4,0.6-2.3,0.6c-1.3,0-2.4-0.4-3.2-1.3S70.3,39,70.3,37.4z M71.9,37.4c0,1.2,0.3,2.1,0.8,2.7
		c0.5,0.6,1.2,0.9,2,0.9c0.8,0,1.4-0.3,2-0.9s0.8-1.5,0.8-2.7c0-1.2-0.3-2-0.8-2.6c-0.5-0.6-1.2-0.9-2-0.9c-0.8,0-1.4,0.3-2,0.9
		S71.9,36.2,71.9,37.4z"/>
	<path d="M80.9,45.7V32.7h1.4V34c0.3-0.5,0.7-0.8,1.2-1.1c0.4-0.2,0.9-0.4,1.6-0.4c0.8,0,1.5,0.2,2.1,0.6s1.1,1,1.4,1.7
		c0.3,0.7,0.5,1.6,0.5,2.5c0,1-0.2,1.8-0.5,2.6c-0.3,0.8-0.8,1.4-1.5,1.8c-0.7,0.4-1.3,0.6-2.1,0.6c-0.5,0-1-0.1-1.4-0.3
		s-0.8-0.5-1-0.8v4.5H80.9z M82.3,37.5c0,1.2,0.2,2.1,0.7,2.7s1.1,0.9,1.8,0.9c0.7,0,1.3-0.3,1.8-0.9c0.5-0.6,0.8-1.5,0.8-2.8
		c0-1.2-0.2-2.1-0.7-2.7s-1.1-0.9-1.8-0.9c-0.7,0-1.3,0.3-1.8,0.9C82.6,35.4,82.3,36.3,82.3,37.5z"/>
	<path d="M90.3,37.4c0-1.7,0.5-3,1.4-3.8c0.8-0.7,1.8-1,2.9-1c1.3,0,2.3,0.4,3.1,1.3s1.2,2,1.2,3.5c0,1.2-0.2,2.1-0.5,2.8
		c-0.4,0.7-0.9,1.2-1.6,1.6s-1.4,0.6-2.3,0.6c-1.3,0-2.4-0.4-3.2-1.3S90.3,39,90.3,37.4z M92,37.4c0,1.2,0.3,2.1,0.8,2.7
		c0.5,0.6,1.2,0.9,2,0.9c0.8,0,1.4-0.3,2-0.9s0.8-1.5,0.8-2.7c0-1.2-0.3-2-0.8-2.6c-0.5-0.6-1.2-0.9-2-0.9c-0.8,0-1.4,0.3-2,0.9
		S92,36.2,92,37.4z"/>
	<path d="M101.8,32.7h6.5v8h1v3.9H108v-2.6h-7.3v2.6h-1.3v-3.9h0.8C101.3,39.3,101.8,36.6,101.8,32.7z M103.1,34.1
		c-0.1,3-0.6,5.3-1.4,6.7h5v-6.7H103.1z"/>
	<path d="M117.1,38.7l1.6,0.2c-0.2,1.1-0.6,1.9-1.3,2.5c-0.7,0.6-1.6,0.9-2.6,0.9c-1.3,0-2.3-0.4-3.1-1.3c-0.8-0.8-1.2-2-1.2-3.6
		c0-1,0.2-1.9,0.5-2.6s0.8-1.3,1.5-1.7c0.7-0.4,1.4-0.6,2.2-0.6c1,0,1.8,0.3,2.5,0.8s1.1,1.2,1.2,2.2l-1.5,0.2
		c-0.1-0.6-0.4-1.1-0.8-1.4s-0.8-0.5-1.3-0.5c-0.8,0-1.4,0.3-1.9,0.9c-0.5,0.6-0.7,1.5-0.7,2.7c0,1.3,0.2,2.2,0.7,2.7
		s1.1,0.9,1.9,0.9c0.6,0,1.1-0.2,1.6-0.6S117,39.5,117.1,38.7z"/>
	<path d="M120,32.7h1.6v4c0.5,0,0.9-0.1,1.1-0.3s0.5-0.8,0.9-1.7c0.3-0.7,0.6-1.2,0.8-1.5s0.4-0.4,0.7-0.5s0.7-0.1,1.2-0.1h0.3v1.3
		l-0.4,0c-0.4,0-0.7,0.1-0.8,0.2c-0.1,0.1-0.3,0.5-0.6,1.2c-0.2,0.6-0.5,1-0.7,1.3s-0.5,0.4-0.9,0.6c0.7,0.2,1.3,0.8,2,1.9l1.7,2.9
		h-1.7l-1.7-2.9c-0.3-0.6-0.6-1-0.9-1.1c-0.3-0.2-0.6-0.3-0.9-0.3v4.3H120V32.7z"/>
	<path d="M134.4,40.9c-0.6,0.5-1.1,0.8-1.7,1.1s-1.1,0.3-1.7,0.3c-1,0-1.8-0.2-2.4-0.8c-0.6-0.5-0.8-1.1-0.8-1.9
		c0-0.5,0.1-0.9,0.3-1.3c0.2-0.4,0.5-0.7,0.8-0.9s0.7-0.4,1.1-0.5c0.3-0.1,0.8-0.2,1.4-0.2c1.3-0.2,2.2-0.3,2.8-0.5
		c0-0.2,0-0.4,0-0.4c0-0.6-0.1-1.1-0.4-1.4c-0.4-0.4-1-0.5-1.8-0.5c-0.7,0-1.3,0.1-1.6,0.4s-0.6,0.7-0.8,1.4l-1.5-0.2
		c0.1-0.7,0.4-1.2,0.7-1.6c0.3-0.4,0.8-0.7,1.4-0.9c0.6-0.2,1.3-0.3,2.1-0.3c0.8,0,1.4,0.1,1.9,0.3s0.9,0.4,1.1,0.7
		c0.2,0.3,0.4,0.6,0.5,1.1c0.1,0.3,0.1,0.8,0.1,1.5v2.1c0,1.5,0,2.4,0.1,2.8c0.1,0.4,0.2,0.8,0.4,1.1h-1.7
		C134.6,41.8,134.5,41.4,134.4,40.9z M134.3,37.4c-0.6,0.2-1.4,0.4-2.6,0.6c-0.7,0.1-1.1,0.2-1.4,0.3s-0.5,0.3-0.6,0.5
		s-0.2,0.5-0.2,0.8c0,0.4,0.2,0.8,0.5,1.1s0.8,0.4,1.4,0.4c0.6,0,1.2-0.1,1.6-0.4s0.8-0.6,1-1.1c0.2-0.4,0.3-0.9,0.3-1.6V37.4z"/>
	<path d="M145.7,32.7v9.3h-1.6v-3.6h-0.9c-0.6,0-1,0.1-1.2,0.2c-0.3,0.1-0.7,0.6-1.2,1.4l-1.4,2h-2l1.7-2.5c0.5-0.8,1-1.2,1.6-1.3
		c-0.9-0.1-1.6-0.4-2-1s-0.7-1.1-0.7-1.8c0-0.8,0.3-1.5,0.9-2s1.4-0.8,2.5-0.8H145.7z M144.1,34.1h-2.2c-0.9,0-1.6,0.1-1.8,0.4
		s-0.4,0.6-0.4,1c0,0.6,0.2,1,0.6,1.2s1.1,0.4,2.1,0.4h1.7V34.1z"/>
</g>
<g class="st1">
	<path d="M62.6,50.8H71v1.5h-6.7v4h3.1c1.1,0,2,0.1,2.7,0.3s1.2,0.6,1.6,1.2s0.6,1.3,0.6,2.1c0,0.7-0.1,1.3-0.4,1.8s-0.7,1-1.3,1.4
		s-1.6,0.5-2.9,0.5h-5V50.8z M64.3,62.2h3.4c0.9,0,1.6-0.2,2.1-0.6s0.7-0.9,0.7-1.7c0-0.5-0.1-1-0.4-1.3s-0.6-0.6-1.1-0.7
		s-1.3-0.2-2.4-0.2h-2.3V62.2z"/>
	<path d="M74.2,54.3h1.6v7.1l4.4-7.1h1.7v9.3h-1.6v-7.1l-4.4,7.1h-1.7V54.3z"/>
	<path d="M91.1,50.5l1.4,0c-0.1,0.6-0.2,1.1-0.4,1.3s-0.5,0.4-0.8,0.5s-1,0.1-2,0.1c-1.3,0-2.2,0.1-2.7,0.4s-0.8,0.7-1,1.2
		c-0.2,0.6-0.3,1.3-0.3,2.1c0.4-0.6,0.9-1,1.4-1.3c0.5-0.3,1.1-0.4,1.8-0.4c1.2,0,2.2,0.4,3,1.3c0.8,0.8,1.2,2,1.2,3.4
		c0,1.1-0.2,2-0.6,2.7s-0.9,1.2-1.4,1.6s-1.3,0.6-2.3,0.6c-1.1,0-2-0.3-2.6-0.8s-1.1-1.2-1.4-1.9s-0.5-2.2-0.5-4.1
		c0-2.5,0.4-4.1,1.3-5s2.1-1.3,3.9-1.3c1.1,0,1.7,0,1.8-0.1S91,50.6,91.1,50.5z M91,59c0-1-0.2-1.8-0.7-2.4s-1.1-0.9-1.9-0.9
		c-0.9,0-1.5,0.3-2,1s-0.7,1.5-0.7,2.6c0,1.1,0.3,1.9,0.8,2.5s1.2,0.9,1.9,0.9c0.8,0,1.4-0.3,1.9-1S91,60.1,91,59z"/>
	<path d="M94.5,54.3h7.3v9.3h-1.6v-8h-4.2v4.6c0,1.1,0,1.8-0.1,2.1s-0.3,0.6-0.6,0.9s-0.8,0.4-1.4,0.4c-0.4,0-0.8,0-1.3-0.1v-1.3
		h0.7c0.3,0,0.6,0,0.7-0.1s0.2-0.2,0.3-0.3s0.1-0.6,0.1-1.4V54.3z"/>
	<path d="M104.2,54.3h1.6v7.1l4.4-7.1h1.7v9.3h-1.6v-7.1l-4.4,7.1h-1.7V54.3z"/>
	<path d="M113.7,59c0-1.7,0.5-3,1.4-3.8c0.8-0.7,1.8-1,2.9-1c1.3,0,2.3,0.4,3.1,1.3s1.2,2,1.2,3.5c0,1.2-0.2,2.1-0.5,2.8
		c-0.4,0.7-0.9,1.2-1.6,1.6s-1.4,0.6-2.3,0.6c-1.3,0-2.4-0.4-3.2-1.3S113.7,60.6,113.7,59z M115.3,59c0,1.2,0.3,2.1,0.8,2.7
		c0.5,0.6,1.2,0.9,2,0.9c0.8,0,1.4-0.3,2-0.9s0.8-1.5,0.8-2.7c0-1.2-0.3-2-0.8-2.6c-0.5-0.6-1.2-0.9-2-0.9c-0.8,0-1.4,0.3-2,0.9
		S115.3,57.8,115.3,59z"/>
	<path d="M123,54.3h7.6v1.3h-3v8h-1.6v-8h-3V54.3z"/>
	<path d="M138.3,60.7l1.6,0.2c-0.3,1-0.7,1.7-1.4,2.2s-1.6,0.8-2.7,0.8c-1.4,0-2.4-0.4-3.2-1.3c-0.8-0.8-1.2-2-1.2-3.5
		c0-1.6,0.4-2.8,1.2-3.7s1.9-1.3,3.1-1.3c1.2,0,2.3,0.4,3.1,1.3s1.2,2,1.2,3.6c0,0.1,0,0.2,0,0.4h-7c0.1,1,0.3,1.8,0.9,2.4
		s1.2,0.8,2,0.8c0.6,0,1.1-0.2,1.5-0.5S138.1,61.3,138.3,60.7z M133.1,58.1h5.2c-0.1-0.8-0.3-1.4-0.6-1.8c-0.5-0.6-1.2-0.9-2-0.9
		c-0.7,0-1.3,0.2-1.8,0.7S133.2,57.3,133.1,58.1z"/>
	<path d="M141.9,54.3h1.6v4c0.5,0,0.9-0.1,1.1-0.3s0.5-0.8,0.9-1.7c0.3-0.7,0.6-1.2,0.8-1.5s0.4-0.4,0.7-0.5s0.7-0.1,1.2-0.1h0.3
		v1.3l-0.4,0c-0.4,0-0.7,0.1-0.8,0.2c-0.1,0.1-0.3,0.5-0.6,1.2c-0.2,0.6-0.5,1-0.7,1.3s-0.5,0.4-0.9,0.6c0.7,0.2,1.3,0.8,2,1.9
		l1.7,2.9H147l-1.7-2.9c-0.3-0.6-0.6-1-0.9-1.1c-0.3-0.2-0.6-0.3-0.9-0.3v4.3h-1.6V54.3z"/>
	<path d="M156.3,62.5c-0.6,0.5-1.1,0.8-1.7,1.1s-1.1,0.3-1.7,0.3c-1,0-1.8-0.2-2.4-0.8c-0.6-0.5-0.8-1.1-0.8-1.9
		c0-0.5,0.1-0.9,0.3-1.3c0.2-0.4,0.5-0.7,0.8-0.9s0.7-0.4,1.1-0.5c0.3-0.1,0.8-0.2,1.4-0.2c1.3-0.2,2.2-0.3,2.8-0.5
		c0-0.2,0-0.4,0-0.4c0-0.6-0.1-1.1-0.4-1.4c-0.4-0.4-1-0.5-1.8-0.5c-0.7,0-1.3,0.1-1.6,0.4s-0.6,0.7-0.8,1.4L150,57
		c0.1-0.7,0.4-1.2,0.7-1.6c0.3-0.4,0.8-0.7,1.4-0.9c0.6-0.2,1.3-0.3,2.1-0.3c0.8,0,1.4,0.1,1.9,0.3s0.9,0.4,1.1,0.7
		c0.2,0.3,0.4,0.6,0.5,1.1c0.1,0.3,0.1,0.8,0.1,1.5v2.1c0,1.5,0,2.4,0.1,2.8c0.1,0.4,0.2,0.8,0.4,1.1h-1.7
		C156.5,63.4,156.4,63,156.3,62.5z M156.2,59c-0.6,0.2-1.4,0.4-2.6,0.6c-0.7,0.1-1.1,0.2-1.4,0.3s-0.5,0.3-0.6,0.5s-0.2,0.5-0.2,0.8
		c0,0.4,0.2,0.8,0.5,1.1s0.8,0.4,1.4,0.4c0.6,0,1.2-0.1,1.6-0.4s0.8-0.6,1-1.1c0.2-0.4,0.3-0.9,0.3-1.6V59z"/>
</g>
</svg>
